<svg xmlns="http://www.w3.org/2000/svg" width="40" height="40" viewBox="0 0 40 40">
    <g fill="none" fill-rule="evenodd">
        <path fill="#ECECEC" fill-rule="nonzero" stroke="#E2E2E2" d="M-1280.5.5h1439v39h-1439z"/>
        <path fill="#DADADA" fill-rule="nonzero" d="M0 0h40v40H0z"/>
        <g fill="#FFF">
            <path d="M15.004 15v2.107c4.89 0 8.87 3.984 8.87 8.88h2.112C25.986 19.93 21.06 15 15.004 15z"/>
            <path d="M15.001 18.732v2.106a5.1 5.1 0 0 1 3.631 1.508 5.115 5.115 0 0 1 1.505 3.64h2.116c0-4-3.254-7.254-7.252-7.254z"/>
            <path d="M16.463 23.056c-.807 0-1.463.657-1.463 1.459a1.46 1.46 0 0 0 1.463 1.458c.81 0 1.464-.651 1.464-1.458 0-.8-.655-1.46-1.464-1.46z"/>
        </g>
    </g>
</svg>
