<?xml version="1.0" encoding="utf-8"?>
<!-- Generator: Adobe Illustrator 25.0.1, SVG Export Plug-In . SVG Version: 6.00 Build 0)  -->
<svg version="1.1" id="圖層_1" xmlns="http://www.w3.org/2000/svg" xmlns:xlink="http://www.w3.org/1999/xlink" x="0px" y="0px"
	 viewBox="0 0 24 24" style="enable-background:new 0 0 24 24;" xml:space="preserve">
<style type="text/css">
	.st0{fill:#E8E9E9;stroke:#014D72;stroke-width:0.75;stroke-linecap:round;stroke-linejoin:round;stroke-miterlimit:10;}
	.st1{fill:#B8BABE;}
	.st2{fill:none;stroke:#014D72;stroke-width:0.75;stroke-linecap:round;stroke-linejoin:round;stroke-miterlimit:10;}
	.st3{fill:#2AAEB0;stroke:#014D72;stroke-width:0.75;stroke-linecap:round;stroke-linejoin:round;stroke-miterlimit:10;}
	.st4{fill:#249EAB;}
	.st5{fill:#F39800;stroke:#014D72;stroke-width:0.75;stroke-miterlimit:10;}
	.st6{fill:#EBBB54;stroke:#014D72;stroke-width:0.75;stroke-linecap:round;stroke-linejoin:round;stroke-miterlimit:10;}
	.st7{fill:#CB1E2B;stroke:#014D72;stroke-width:0.75;stroke-linecap:round;stroke-linejoin:round;stroke-miterlimit:10;}
	.st8{fill:none;stroke:#014D72;stroke-linecap:round;stroke-linejoin:round;stroke-miterlimit:10;}
	.st9{fill:#DC4E31;stroke:#014D72;stroke-width:0.75;stroke-linecap:round;stroke-linejoin:round;stroke-miterlimit:10;}
	.st10{fill:#FFFFFF;stroke:#014D72;stroke-width:0.75;stroke-linecap:round;stroke-linejoin:round;stroke-miterlimit:10;}
</style>
<g>
	<g>
		<rect x="4.14" y="6.92" class="st0" width="14.03" height="13.38"/>
		<rect x="12.3" y="6.92" class="st1" width="5.94" height="13.38"/>
		<rect x="4.14" y="6.92" class="st2" width="14.03" height="13.38"/>
	</g>
	<g>
		<rect x="6.85" y="10.58" class="st3" width="8.6" height="6.57"/>
		<rect x="12.3" y="10.45" class="st4" width="3.39" height="6.92"/>
		<rect x="6.85" y="10.58" class="st2" width="8.6" height="6.57"/>
	</g>
	<path class="st5" d="M22.87,17.91c0,0.58-0.73,1.05-0.9,1.57c-0.18,0.55,0.13,1.34-0.2,1.8c-0.33,0.46-1.19,0.41-1.65,0.74
		c-0.45,0.33-0.67,1.16-1.22,1.34c-0.53,0.17-1.19-0.37-1.77-0.37c-0.58,0-1.25,0.54-1.77,0.37c-0.55-0.18-0.76-1.01-1.22-1.34
		c-0.46-0.33-1.32-0.28-1.65-0.74c-0.33-0.45-0.02-1.25-0.2-1.8c-0.17-0.53-0.9-0.99-0.9-1.57c0-0.58,0.73-1.05,0.9-1.57
		c0.18-0.55-0.13-1.34,0.2-1.8c0.33-0.46,1.19-0.41,1.65-0.74c0.45-0.33,0.67-1.16,1.22-1.34c0.53-0.17,1.19,0.37,1.77,0.37
		c0.58,0,1.25-0.54,1.77-0.37c0.55,0.18,0.76,1.01,1.22,1.34c0.46,0.33,1.32,0.28,1.65,0.74c0.33,0.45,0.02,1.25,0.2,1.8
		C22.14,16.87,22.87,17.33,22.87,17.91z"/>
	<rect x="3.08" y="0.95" class="st6" width="16.14" height="1.37"/>
	<path class="st7" d="M20.98,6.78c0,1.01-0.83,1.83-1.86,1.83s-1.86-0.82-1.86-1.83H20.98z"/>
	<path class="st0" d="M16.99,6.78c0,1.01-0.83,1.83-1.86,1.83s-1.86-0.82-1.86-1.83H16.99z"/>
	<path class="st7" d="M13.01,6.78c0,1.01-0.83,1.83-1.86,1.83S9.29,7.79,9.29,6.78H13.01z"/>
	<path class="st0" d="M9.02,6.78c0,1.01-0.83,1.83-1.86,1.83S5.31,7.79,5.31,6.78H9.02z"/>
	<path class="st7" d="M5.03,6.78c0,1.01-0.83,1.83-1.86,1.83S1.32,7.79,1.32,6.78H5.03z"/>
	<polyline class="st8" points="15.22,17.58 16.88,19.43 19.54,16.9 	"/>
	<g>
		<polygon class="st9" points="17.05,6.78 20.98,6.78 19.01,2.31 15.87,2.31 		"/>
		<polygon class="st10" points="13.12,6.78 17.05,6.78 15.87,2.31 12.72,2.31 		"/>
		<polygon class="st9" points="9.18,6.78 13.12,6.78 12.72,2.31 9.58,2.31 		"/>
		<polygon class="st10" points="5.25,6.78 9.18,6.78 9.58,2.31 6.43,2.31 		"/>
		<polygon class="st9" points="1.32,6.78 5.25,6.78 6.43,2.31 3.29,2.31 		"/>
	</g>
</g>
</svg>
